%TF.GenerationSoftware,KiCad,Pcbnew,8.0.3*%
%TF.CreationDate,2024-06-23T16:24:10-07:00*%
%TF.ProjectId,backplate,6261636b-706c-4617-9465-2e6b69636164,rev?*%
%TF.SameCoordinates,Original*%
%TF.FileFunction,Copper,L1,Top*%
%TF.FilePolarity,Positive*%
%FSLAX46Y46*%
G04 Gerber Fmt 4.6, Leading zero omitted, Abs format (unit mm)*
G04 Created by KiCad (PCBNEW 8.0.3) date 2024-06-23 16:24:10*
%MOMM*%
%LPD*%
G01*
G04 APERTURE LIST*
G04 APERTURE END LIST*
%TA.AperFunction,NonConductor*%
G36*
X170502672Y-93250617D02*
G01*
X170930318Y-93269289D01*
X170941054Y-93270229D01*
X171362765Y-93325748D01*
X171373392Y-93327621D01*
X171788668Y-93419686D01*
X171799080Y-93422475D01*
X172204754Y-93550384D01*
X172214889Y-93554073D01*
X172607857Y-93716846D01*
X172617648Y-93721412D01*
X172994912Y-93917803D01*
X173004280Y-93923211D01*
X173363002Y-94151742D01*
X173371863Y-94157947D01*
X173709294Y-94416867D01*
X173717581Y-94423821D01*
X174031158Y-94711162D01*
X174038807Y-94718811D01*
X174326148Y-95032388D01*
X174333102Y-95040675D01*
X174592022Y-95378106D01*
X174598227Y-95386967D01*
X174826758Y-95745689D01*
X174832166Y-95755057D01*
X175028554Y-96132314D01*
X175033126Y-96142118D01*
X175182408Y-96502518D01*
X175195890Y-96535065D01*
X175199589Y-96545228D01*
X175315473Y-96912765D01*
X175327488Y-96950870D01*
X175330288Y-96961320D01*
X175422345Y-97376565D01*
X175424223Y-97387218D01*
X175479738Y-97808895D01*
X175480681Y-97819671D01*
X175499233Y-98244591D01*
X175499233Y-98255409D01*
X175480681Y-98680328D01*
X175479738Y-98691104D01*
X175424223Y-99112781D01*
X175422345Y-99123434D01*
X175330288Y-99538679D01*
X175327488Y-99549129D01*
X175199590Y-99954769D01*
X175195890Y-99964934D01*
X175033126Y-100357881D01*
X175028554Y-100367685D01*
X174832166Y-100744942D01*
X174826758Y-100754310D01*
X174598227Y-101113032D01*
X174592022Y-101121893D01*
X174333102Y-101459324D01*
X174326148Y-101467611D01*
X174038807Y-101781188D01*
X174031158Y-101788837D01*
X173717581Y-102076178D01*
X173709294Y-102083132D01*
X173371863Y-102342052D01*
X173363002Y-102348257D01*
X173004280Y-102576788D01*
X172994912Y-102582196D01*
X172617655Y-102778584D01*
X172607851Y-102783156D01*
X172214904Y-102945920D01*
X172204739Y-102949620D01*
X171799099Y-103077518D01*
X171788649Y-103080318D01*
X171373404Y-103172375D01*
X171362751Y-103174253D01*
X170941074Y-103229768D01*
X170930298Y-103230711D01*
X170502673Y-103249382D01*
X170497264Y-103249500D01*
X122502706Y-103249500D01*
X122497297Y-103249382D01*
X122069671Y-103230711D01*
X122058895Y-103229768D01*
X121637218Y-103174253D01*
X121626565Y-103172375D01*
X121356148Y-103112425D01*
X121211317Y-103080317D01*
X121200874Y-103077519D01*
X120795228Y-102949619D01*
X120785065Y-102945920D01*
X120392118Y-102783156D01*
X120382314Y-102778584D01*
X120005057Y-102582196D01*
X119995689Y-102576788D01*
X119636967Y-102348257D01*
X119628106Y-102342052D01*
X119290675Y-102083132D01*
X119282388Y-102076178D01*
X118968811Y-101788837D01*
X118961162Y-101781188D01*
X118673821Y-101467611D01*
X118666867Y-101459324D01*
X118407947Y-101121893D01*
X118401742Y-101113032D01*
X118355747Y-101040835D01*
X118173210Y-100754309D01*
X118167803Y-100744942D01*
X118094384Y-100603905D01*
X117971412Y-100367678D01*
X117966843Y-100357881D01*
X117952382Y-100322968D01*
X117804073Y-99964919D01*
X117800384Y-99954784D01*
X117672475Y-99549110D01*
X117669686Y-99538698D01*
X117577621Y-99123422D01*
X117575748Y-99112795D01*
X117520229Y-98691084D01*
X117519289Y-98680348D01*
X117500736Y-98255405D01*
X117500736Y-98250000D01*
X117894551Y-98250000D01*
X117914317Y-98501151D01*
X117973126Y-98746110D01*
X118069533Y-98978859D01*
X118201160Y-99193653D01*
X118201161Y-99193656D01*
X118256604Y-99258571D01*
X118364776Y-99385224D01*
X118508800Y-99508232D01*
X118556343Y-99548838D01*
X118556346Y-99548839D01*
X118771140Y-99680466D01*
X119003889Y-99776873D01*
X119248852Y-99835683D01*
X119500000Y-99855449D01*
X119751148Y-99835683D01*
X119996111Y-99776873D01*
X120228859Y-99680466D01*
X120443659Y-99548836D01*
X120635224Y-99385224D01*
X120798836Y-99193659D01*
X120930466Y-98978859D01*
X121026873Y-98746111D01*
X121085683Y-98501148D01*
X121105449Y-98250000D01*
X121085683Y-97998852D01*
X121026873Y-97753889D01*
X120980389Y-97641666D01*
X120930466Y-97521140D01*
X120798839Y-97306346D01*
X120798838Y-97306343D01*
X120761875Y-97263066D01*
X120635224Y-97114776D01*
X120508571Y-97006604D01*
X120443656Y-96951161D01*
X120443653Y-96951160D01*
X120228859Y-96819533D01*
X119996110Y-96723126D01*
X119751151Y-96664317D01*
X119500000Y-96644551D01*
X119248848Y-96664317D01*
X119003889Y-96723126D01*
X118771140Y-96819533D01*
X118556346Y-96951160D01*
X118556343Y-96951161D01*
X118364776Y-97114776D01*
X118201161Y-97306343D01*
X118201160Y-97306346D01*
X118069533Y-97521140D01*
X117973126Y-97753889D01*
X117914317Y-97998848D01*
X117894551Y-98250000D01*
X117500736Y-98250000D01*
X117500736Y-98244591D01*
X117519289Y-97819649D01*
X117520229Y-97808917D01*
X117575749Y-97387200D01*
X117577621Y-97376581D01*
X117669687Y-96961295D01*
X117672474Y-96950895D01*
X117800386Y-96545208D01*
X117804070Y-96535087D01*
X117966849Y-96142103D01*
X117971407Y-96132329D01*
X118010423Y-96057381D01*
X126426500Y-96057381D01*
X126426500Y-100796691D01*
X126460608Y-100923987D01*
X126493554Y-100981050D01*
X126526500Y-101038114D01*
X126619686Y-101131300D01*
X126718521Y-101188363D01*
X126730694Y-101195391D01*
X126733814Y-101197192D01*
X126861108Y-101231300D01*
X126861110Y-101231300D01*
X137683590Y-101231300D01*
X137683592Y-101231300D01*
X137810886Y-101197192D01*
X137925014Y-101131300D01*
X138018200Y-101038114D01*
X138084092Y-100923986D01*
X138118200Y-100796692D01*
X138118200Y-96098807D01*
X138118200Y-96057381D01*
X141264100Y-96057381D01*
X141264100Y-100796691D01*
X141298208Y-100923987D01*
X141331154Y-100981050D01*
X141364100Y-101038114D01*
X141457286Y-101131300D01*
X141556121Y-101188363D01*
X141568294Y-101195391D01*
X141571414Y-101197192D01*
X141698708Y-101231300D01*
X141698710Y-101231300D01*
X152521090Y-101231300D01*
X152521092Y-101231300D01*
X152648386Y-101197192D01*
X152762514Y-101131300D01*
X152855700Y-101038114D01*
X152921592Y-100923986D01*
X152955700Y-100796692D01*
X152955700Y-99081585D01*
X154645010Y-99081585D01*
X154645010Y-99270443D01*
X154680570Y-99540538D01*
X154680915Y-99543156D01*
X154691499Y-99582654D01*
X154752110Y-99808857D01*
X154814686Y-99959930D01*
X154857376Y-100062991D01*
X154994914Y-100301212D01*
X154994917Y-100301216D01*
X154994921Y-100301222D01*
X155011607Y-100322967D01*
X155162370Y-100519442D01*
X155356877Y-100713947D01*
X155575109Y-100881400D01*
X155813331Y-101018935D01*
X156061902Y-101121893D01*
X156067472Y-101124200D01*
X156256475Y-101174840D01*
X156333169Y-101195390D01*
X156333170Y-101195390D01*
X156333172Y-101195391D01*
X156456151Y-101211579D01*
X156605889Y-101231291D01*
X156669042Y-101231290D01*
X156669188Y-101231300D01*
X156677528Y-101231300D01*
X163269667Y-101231300D01*
X163269671Y-101231299D01*
X163313433Y-101231299D01*
X163579770Y-101196233D01*
X163839251Y-101126704D01*
X164087437Y-101023900D01*
X164320081Y-100889581D01*
X164533203Y-100726045D01*
X164723156Y-100536091D01*
X164886690Y-100322968D01*
X165021007Y-100090323D01*
X165123809Y-99842136D01*
X165193336Y-99582654D01*
X165228400Y-99316318D01*
X165228400Y-99182000D01*
X165228400Y-99116108D01*
X165228400Y-98378808D01*
X165228400Y-98370898D01*
X165228390Y-98370742D01*
X165228390Y-98310389D01*
X165228390Y-98310383D01*
X165220440Y-98250000D01*
X171894551Y-98250000D01*
X171914317Y-98501151D01*
X171973126Y-98746110D01*
X172069533Y-98978859D01*
X172201160Y-99193653D01*
X172201161Y-99193656D01*
X172256604Y-99258571D01*
X172364776Y-99385224D01*
X172508800Y-99508232D01*
X172556343Y-99548838D01*
X172556346Y-99548839D01*
X172771140Y-99680466D01*
X173003889Y-99776873D01*
X173248852Y-99835683D01*
X173500000Y-99855449D01*
X173751148Y-99835683D01*
X173996111Y-99776873D01*
X174228859Y-99680466D01*
X174443659Y-99548836D01*
X174635224Y-99385224D01*
X174798836Y-99193659D01*
X174930466Y-98978859D01*
X175026873Y-98746111D01*
X175085683Y-98501148D01*
X175105449Y-98250000D01*
X175085683Y-97998852D01*
X175026873Y-97753889D01*
X174980389Y-97641666D01*
X174930466Y-97521140D01*
X174798839Y-97306346D01*
X174798838Y-97306343D01*
X174761875Y-97263066D01*
X174635224Y-97114776D01*
X174508571Y-97006604D01*
X174443656Y-96951161D01*
X174443653Y-96951160D01*
X174228859Y-96819533D01*
X173996110Y-96723126D01*
X173751151Y-96664317D01*
X173500000Y-96644551D01*
X173248848Y-96664317D01*
X173003889Y-96723126D01*
X172771140Y-96819533D01*
X172556346Y-96951160D01*
X172556343Y-96951161D01*
X172364776Y-97114776D01*
X172201161Y-97306343D01*
X172201160Y-97306346D01*
X172069533Y-97521140D01*
X171973126Y-97753889D01*
X171914317Y-97998848D01*
X171894551Y-98250000D01*
X165220440Y-98250000D01*
X165193326Y-98044047D01*
X165123799Y-97784567D01*
X165116426Y-97766768D01*
X165032317Y-97563709D01*
X165020998Y-97536382D01*
X164886682Y-97303738D01*
X164723148Y-97090616D01*
X164533196Y-96900662D01*
X164533191Y-96900658D01*
X164533189Y-96900656D01*
X164533188Y-96900655D01*
X164320085Y-96737132D01*
X164159731Y-96644551D01*
X164087433Y-96602809D01*
X163839248Y-96500006D01*
X163579768Y-96430477D01*
X163566285Y-96428701D01*
X163313433Y-96395410D01*
X163252873Y-96395410D01*
X163252712Y-96395400D01*
X163245004Y-96395400D01*
X156809312Y-96395400D01*
X156677528Y-96395400D01*
X156669823Y-96395400D01*
X156669369Y-96395429D01*
X156605889Y-96395429D01*
X156333176Y-96431328D01*
X156333174Y-96431329D01*
X156067477Y-96502518D01*
X156067473Y-96502519D01*
X155813349Y-96607778D01*
X155813338Y-96607784D01*
X155575123Y-96745315D01*
X155575112Y-96745322D01*
X155356894Y-96912765D01*
X155162382Y-97107274D01*
X155162382Y-97107275D01*
X154994938Y-97325488D01*
X154994926Y-97325506D01*
X154857399Y-97563708D01*
X154857398Y-97563709D01*
X154752129Y-97817848D01*
X154680934Y-98083550D01*
X154645030Y-98356256D01*
X154645030Y-99081517D01*
X154645010Y-99081585D01*
X152955700Y-99081585D01*
X152955700Y-96098808D01*
X152955700Y-96098807D01*
X152955700Y-96057382D01*
X152925154Y-95844931D01*
X152915799Y-95813073D01*
X152864688Y-95638998D01*
X152864684Y-95638989D01*
X152851247Y-95609565D01*
X152775528Y-95443761D01*
X152775519Y-95443745D01*
X152659481Y-95263187D01*
X152659475Y-95263180D01*
X152518926Y-95100976D01*
X152518924Y-95100974D01*
X152356720Y-94960425D01*
X152356713Y-94960419D01*
X152176155Y-94844381D01*
X152176139Y-94844372D01*
X151980917Y-94755217D01*
X151774975Y-94694747D01*
X151774965Y-94694744D01*
X151583955Y-94667282D01*
X151562519Y-94664200D01*
X151521093Y-94664200D01*
X142830491Y-94664200D01*
X142764598Y-94664200D01*
X142657281Y-94664200D01*
X142444834Y-94694744D01*
X142444824Y-94694747D01*
X142238883Y-94755217D01*
X142043660Y-94844372D01*
X142043644Y-94844381D01*
X141863087Y-94960419D01*
X141863080Y-94960425D01*
X141700876Y-95100974D01*
X141700874Y-95100976D01*
X141560325Y-95263180D01*
X141560319Y-95263187D01*
X141444281Y-95443744D01*
X141444272Y-95443760D01*
X141355117Y-95638983D01*
X141294647Y-95844924D01*
X141294644Y-95844934D01*
X141264100Y-96057381D01*
X138118200Y-96057381D01*
X138096762Y-95908283D01*
X138087655Y-95844934D01*
X138087652Y-95844924D01*
X138038558Y-95677724D01*
X138027184Y-95638989D01*
X138027183Y-95638986D01*
X138027182Y-95638983D01*
X137938027Y-95443760D01*
X137938018Y-95443744D01*
X137821980Y-95263187D01*
X137821974Y-95263180D01*
X137681425Y-95100976D01*
X137681423Y-95100974D01*
X137519219Y-94960425D01*
X137519212Y-94960419D01*
X137338655Y-94844381D01*
X137338639Y-94844372D01*
X137143416Y-94755217D01*
X136937475Y-94694747D01*
X136937465Y-94694744D01*
X136746455Y-94667282D01*
X136725019Y-94664200D01*
X136683593Y-94664200D01*
X127992891Y-94664200D01*
X127926998Y-94664200D01*
X127819681Y-94664200D01*
X127607234Y-94694744D01*
X127607224Y-94694747D01*
X127401283Y-94755217D01*
X127206060Y-94844372D01*
X127206044Y-94844381D01*
X127025487Y-94960419D01*
X127025480Y-94960425D01*
X126863276Y-95100974D01*
X126863274Y-95100976D01*
X126722725Y-95263180D01*
X126722719Y-95263187D01*
X126606681Y-95443744D01*
X126606672Y-95443760D01*
X126517517Y-95638983D01*
X126457047Y-95844924D01*
X126457044Y-95844934D01*
X126426500Y-96057381D01*
X118010423Y-96057381D01*
X118167809Y-95755045D01*
X118173204Y-95745700D01*
X118401749Y-95386956D01*
X118407939Y-95378117D01*
X118666874Y-95040666D01*
X118673812Y-95032397D01*
X118961172Y-94718800D01*
X118968800Y-94711172D01*
X119282397Y-94423812D01*
X119290666Y-94416874D01*
X119628117Y-94157939D01*
X119636956Y-94151749D01*
X119995700Y-93923204D01*
X120005045Y-93917809D01*
X120382329Y-93721407D01*
X120392103Y-93716849D01*
X120785087Y-93554070D01*
X120795208Y-93550386D01*
X121200895Y-93422474D01*
X121211295Y-93419687D01*
X121626581Y-93327621D01*
X121637200Y-93325749D01*
X122058917Y-93270229D01*
X122069649Y-93269289D01*
X122497297Y-93250617D01*
X122502706Y-93250500D01*
X122565892Y-93250500D01*
X170434078Y-93250500D01*
X170497264Y-93250500D01*
X170502672Y-93250617D01*
G37*
%TD.AperFunction*%
M02*
