%TF.GenerationSoftware,KiCad,Pcbnew,8.0.3*%
%TF.CreationDate,2024-06-23T16:24:10-07:00*%
%TF.ProjectId,backplate,6261636b-706c-4617-9465-2e6b69636164,rev?*%
%TF.SameCoordinates,Original*%
%TF.FileFunction,Legend,Top*%
%TF.FilePolarity,Positive*%
%FSLAX46Y46*%
G04 Gerber Fmt 4.6, Leading zero omitted, Abs format (unit mm)*
G04 Created by KiCad (PCBNEW 8.0.3) date 2024-06-23 16:24:10*
%MOMM*%
%LPD*%
G01*
G04 APERTURE LIST*
%ADD10C,0.000000*%
G04 APERTURE END LIST*
D10*
%TO.C,kibuzzard-6678AE55*%
G36*
X140300823Y-97883691D02*
G01*
X140526860Y-98440200D01*
X140752897Y-97883691D01*
X140820136Y-97802861D01*
X140926001Y-97823605D01*
X141008262Y-97892275D01*
X140991810Y-97990987D01*
X140652754Y-98736338D01*
X140603398Y-98788555D01*
X140529721Y-98807868D01*
X140449607Y-98789986D01*
X140400966Y-98736338D01*
X140061910Y-97990987D01*
X140047604Y-97891559D01*
X140127718Y-97823605D01*
X140235014Y-97802146D01*
X140300823Y-97883691D01*
G37*
G36*
X138898820Y-97805802D02*
G01*
X138987041Y-97842521D01*
X139064771Y-97903720D01*
X139125175Y-97982403D01*
X139161417Y-98071578D01*
X139173498Y-98171245D01*
X139166524Y-98243491D01*
X139145601Y-98311445D01*
X139113233Y-98372246D01*
X139071924Y-98423033D01*
X138984657Y-98498140D01*
X138898820Y-98548927D01*
X139077647Y-98548927D01*
X139127003Y-98551788D01*
X139165629Y-98566094D01*
X139197818Y-98606152D01*
X139207833Y-98681974D01*
X139197818Y-98755651D01*
X139164914Y-98794993D01*
X139124142Y-98809299D01*
X139074785Y-98812160D01*
X138558333Y-98812160D01*
X138466774Y-98772818D01*
X138428147Y-98679113D01*
X138441023Y-98606509D01*
X138479649Y-98540343D01*
X138529363Y-98489378D01*
X138598391Y-98436624D01*
X138673856Y-98387446D01*
X138742883Y-98347210D01*
X138804936Y-98307153D01*
X138859478Y-98258512D01*
X138897568Y-98204864D01*
X138910265Y-98149785D01*
X138905258Y-98111874D01*
X138873784Y-98074678D01*
X138801538Y-98055365D01*
X138717847Y-98085050D01*
X138689950Y-98174106D01*
X138687804Y-98219886D01*
X138674213Y-98256366D01*
X138634156Y-98286409D01*
X138558333Y-98295708D01*
X138483941Y-98285694D01*
X138443884Y-98252790D01*
X138430293Y-98213448D01*
X138428147Y-98164092D01*
X138439592Y-98072691D01*
X138473927Y-97987331D01*
X138531152Y-97908011D01*
X138606815Y-97844429D01*
X138696467Y-97806279D01*
X138800107Y-97793562D01*
X138898820Y-97805802D01*
G37*
G36*
X139910265Y-97816452D02*
G01*
X139949607Y-97849356D01*
X139963197Y-97889413D01*
X139966059Y-97938054D01*
X139966059Y-98677682D01*
X139963197Y-98727039D01*
X139948891Y-98766381D01*
X139908834Y-98797854D01*
X139833011Y-98807868D01*
X139758619Y-98797854D01*
X139718562Y-98764950D01*
X139704971Y-98725608D01*
X139702825Y-98676252D01*
X139702825Y-98527468D01*
X139355186Y-98527468D01*
X139280794Y-98517454D01*
X139240737Y-98484549D01*
X139227146Y-98445207D01*
X139225000Y-98395851D01*
X139229292Y-98350072D01*
X139339449Y-97905150D01*
X139393097Y-97810730D01*
X139501109Y-97812160D01*
X139584084Y-97853648D01*
X139604113Y-97916595D01*
X139515415Y-98281402D01*
X139702825Y-98281402D01*
X139702825Y-97930901D01*
X139704971Y-97883691D01*
X139718562Y-97846495D01*
X139759335Y-97815737D01*
X139835873Y-97806438D01*
X139910265Y-97816452D01*
G37*
%TO.C,kibuzzard-6678AD6F*%
G36*
X169856630Y-97441091D02*
G01*
X169991620Y-97461114D01*
X170123998Y-97494273D01*
X170252488Y-97540248D01*
X170375854Y-97598595D01*
X170492906Y-97668754D01*
X170602518Y-97750047D01*
X170703633Y-97841693D01*
X170795279Y-97942809D01*
X170876573Y-98052421D01*
X170946731Y-98169473D01*
X171005079Y-98292838D01*
X171051053Y-98421329D01*
X171084212Y-98553706D01*
X171104236Y-98688697D01*
X171110932Y-98825000D01*
X171104236Y-98961303D01*
X171084212Y-99096294D01*
X171051053Y-99228671D01*
X171005079Y-99357162D01*
X170946731Y-99480527D01*
X170876573Y-99597579D01*
X170795279Y-99707191D01*
X170703633Y-99808307D01*
X170602518Y-99899953D01*
X170492906Y-99981246D01*
X170375854Y-100051405D01*
X170252488Y-100109752D01*
X170123998Y-100155727D01*
X169991620Y-100188886D01*
X169856630Y-100208909D01*
X169720327Y-100215606D01*
X169458047Y-100215606D01*
X168696388Y-100215606D01*
X166036874Y-100215606D01*
X165750465Y-100215606D01*
X164439068Y-100215606D01*
X164439068Y-98005114D01*
X165750465Y-98005114D01*
X165750465Y-99629149D01*
X165755186Y-99737732D01*
X165785086Y-99824285D01*
X165873212Y-99896674D01*
X166036874Y-99918705D01*
X166203684Y-99896674D01*
X166291810Y-99825858D01*
X166321710Y-99740880D01*
X166326431Y-99632296D01*
X166326431Y-99330150D01*
X166663197Y-99330150D01*
X166791846Y-99317561D01*
X166926001Y-99279793D01*
X167059764Y-99218419D01*
X167187232Y-99135014D01*
X167300143Y-99024464D01*
X167390236Y-98881652D01*
X167416218Y-98807690D01*
X167557046Y-98807690D01*
X167577110Y-99036660D01*
X167637303Y-99245172D01*
X167728183Y-99425751D01*
X167840308Y-99570923D01*
X167971316Y-99688948D01*
X168118848Y-99788090D01*
X168272282Y-99864807D01*
X168420994Y-99915558D01*
X168563019Y-99943884D01*
X168696388Y-99953326D01*
X168899917Y-99933743D01*
X169095052Y-99874992D01*
X169281795Y-99777074D01*
X169410837Y-99681080D01*
X169454900Y-99566202D01*
X169385658Y-99383655D01*
X169272353Y-99249106D01*
X169165343Y-99204256D01*
X169007976Y-99267203D01*
X168849821Y-99345100D01*
X168683798Y-99371066D01*
X168444599Y-99320708D01*
X168330901Y-99250286D01*
X168229006Y-99139735D01*
X168157010Y-98995351D01*
X168133011Y-98823426D01*
X168146388Y-98689664D01*
X168186516Y-98571638D01*
X168326574Y-98400107D01*
X168504399Y-98307260D01*
X168683798Y-98275787D01*
X168759335Y-98278934D01*
X168822282Y-98289950D01*
X168872640Y-98302539D01*
X168915129Y-98318276D01*
X168945029Y-98335587D01*
X168971781Y-98352897D01*
X168992239Y-98367060D01*
X169162196Y-98439449D01*
X169270780Y-98396960D01*
X169388805Y-98269492D01*
X169458047Y-98093240D01*
X169428147Y-97998820D01*
X169369921Y-97932725D01*
X169284943Y-97872926D01*
X169086310Y-97775008D01*
X168893272Y-97716257D01*
X168705830Y-97696674D01*
X168566953Y-97706116D01*
X168420994Y-97734442D01*
X168269921Y-97784406D01*
X168115701Y-97858763D01*
X167968169Y-97954757D01*
X167837160Y-98069635D01*
X167725429Y-98210873D01*
X167635730Y-98385944D01*
X167576717Y-98587375D01*
X167557046Y-98807690D01*
X167416218Y-98807690D01*
X167449249Y-98713662D01*
X167468920Y-98527575D01*
X167448856Y-98340701D01*
X167388662Y-98170351D01*
X167297783Y-98025179D01*
X167185658Y-97913841D01*
X167059764Y-97830436D01*
X166927575Y-97769063D01*
X166794599Y-97731295D01*
X166666345Y-97718705D01*
X166040021Y-97718705D01*
X165873212Y-97740737D01*
X165785086Y-97813126D01*
X165755186Y-97899678D01*
X165750465Y-98005114D01*
X164439068Y-98005114D01*
X164439068Y-97434394D01*
X165750465Y-97434394D01*
X169458047Y-97434394D01*
X169720327Y-97434394D01*
X169856630Y-97441091D01*
G37*
G36*
X166828434Y-98360765D02*
G01*
X166896102Y-98524428D01*
X166822139Y-98697532D01*
X166666345Y-98754185D01*
X166326431Y-98754185D01*
X166326431Y-98294671D01*
X166663197Y-98294671D01*
X166828434Y-98360765D01*
G37*
%TD*%
M02*
