%TF.GenerationSoftware,KiCad,Pcbnew,8.0.3*%
%TF.CreationDate,2024-06-23T16:23:58-07:00*%
%TF.ProjectId,backplate,6261636b-706c-4617-9465-2e6b69636164,rev?*%
%TF.SameCoordinates,Original*%
%TF.FileFunction,Drillmap*%
%TF.FilePolarity,Positive*%
%FSLAX45Y45*%
G04 Gerber Fmt 4.5, Leading zero omitted, Abs format (unit mm)*
G04 Created by KiCad (PCBNEW 8.0.3) date 2024-06-23 16:23:58*
%MOMM*%
%LPD*%
G01*
G04 APERTURE LIST*
%ADD10C,0.200000*%
G04 APERTURE END LIST*
D10*
X16317911Y-9689590D02*
X16317911Y-9689591D01*
X15674342Y-9689591D02*
X15674342Y-9689590D01*
X15674342Y-10073079D02*
X15674342Y-10073080D01*
X16317911Y-10073079D02*
X16317911Y-10073080D01*
X16317911Y-9689591D02*
G75*
G02*
X16472790Y-9844470I0J-154879D01*
G01*
X16472790Y-9918200D02*
X16472790Y-9844470D01*
X16472790Y-9918200D02*
G75*
G02*
X16317911Y-10073079I-154879J0D01*
G01*
X15674342Y-10073080D02*
X16317911Y-10073080D01*
X15674342Y-10073079D02*
G75*
G02*
X15514553Y-9913290I0J159789D01*
G01*
X15514553Y-9849380D02*
X15514553Y-9913290D01*
X15514553Y-9849380D02*
G75*
G02*
X15674342Y-9689591I159789J0D01*
G01*
X16317911Y-9689590D02*
X15674342Y-9689590D01*
X13661770Y-9516470D02*
G75*
G02*
X13761770Y-9616470I0J-100000D01*
G01*
X13761770Y-10073080D02*
X13761770Y-9616470D01*
X12692700Y-10073080D02*
X13761770Y-10073080D01*
X12692700Y-9616470D02*
X12692700Y-10073080D01*
X12692700Y-9616470D02*
G75*
G02*
X12792700Y-9516470I100000J0D01*
G01*
X13661770Y-9516470D02*
X12792700Y-9516470D01*
X15145520Y-9516470D02*
G75*
G02*
X15245520Y-9616470I0J-100000D01*
G01*
X15245520Y-10073080D02*
X15245520Y-9616470D01*
X14176460Y-10073080D02*
X15245520Y-10073080D01*
X14176460Y-9616470D02*
X14176460Y-10073080D01*
X14176460Y-9616470D02*
G75*
G02*
X14276460Y-9516470I100000J0D01*
G01*
X15145520Y-9516470D02*
X14276460Y-9516470D01*
X12060000Y-9825000D02*
G75*
G02*
X11840000Y-9825000I-110000J0D01*
G01*
X11840000Y-9825000D02*
G75*
G02*
X12060000Y-9825000I110000J0D01*
G01*
X17460000Y-9825000D02*
G75*
G02*
X17240000Y-9825000I-110000J0D01*
G01*
X17240000Y-9825000D02*
G75*
G02*
X17460000Y-9825000I110000J0D01*
G01*
X12250000Y-10375000D02*
X17049997Y-10375000D01*
X12250000Y-10375000D02*
G75*
G02*
X12250000Y-9275000I0J550000D01*
G01*
X17049997Y-9275000D02*
X12250000Y-9275000D01*
X17049997Y-9275000D02*
G75*
G02*
X17049997Y-10375000I0J-550000D01*
G01*
X11950777Y-10696484D02*
X11950777Y-10496484D01*
X11950777Y-10496484D02*
X11998396Y-10496484D01*
X11998396Y-10496484D02*
X12026967Y-10506008D01*
X12026967Y-10506008D02*
X12046015Y-10525055D01*
X12046015Y-10525055D02*
X12055539Y-10544103D01*
X12055539Y-10544103D02*
X12065062Y-10582198D01*
X12065062Y-10582198D02*
X12065062Y-10610770D01*
X12065062Y-10610770D02*
X12055539Y-10648865D01*
X12055539Y-10648865D02*
X12046015Y-10667912D01*
X12046015Y-10667912D02*
X12026967Y-10686960D01*
X12026967Y-10686960D02*
X11998396Y-10696484D01*
X11998396Y-10696484D02*
X11950777Y-10696484D01*
X12150777Y-10696484D02*
X12150777Y-10563150D01*
X12150777Y-10601246D02*
X12160301Y-10582198D01*
X12160301Y-10582198D02*
X12169824Y-10572674D01*
X12169824Y-10572674D02*
X12188872Y-10563150D01*
X12188872Y-10563150D02*
X12207920Y-10563150D01*
X12274586Y-10696484D02*
X12274586Y-10563150D01*
X12274586Y-10496484D02*
X12265062Y-10506008D01*
X12265062Y-10506008D02*
X12274586Y-10515531D01*
X12274586Y-10515531D02*
X12284110Y-10506008D01*
X12284110Y-10506008D02*
X12274586Y-10496484D01*
X12274586Y-10496484D02*
X12274586Y-10515531D01*
X12398396Y-10696484D02*
X12379348Y-10686960D01*
X12379348Y-10686960D02*
X12369824Y-10667912D01*
X12369824Y-10667912D02*
X12369824Y-10496484D01*
X12503158Y-10696484D02*
X12484110Y-10686960D01*
X12484110Y-10686960D02*
X12474586Y-10667912D01*
X12474586Y-10667912D02*
X12474586Y-10496484D01*
X12731729Y-10696484D02*
X12731729Y-10496484D01*
X12731729Y-10496484D02*
X12798396Y-10639341D01*
X12798396Y-10639341D02*
X12865062Y-10496484D01*
X12865062Y-10496484D02*
X12865062Y-10696484D01*
X13046015Y-10696484D02*
X13046015Y-10591722D01*
X13046015Y-10591722D02*
X13036491Y-10572674D01*
X13036491Y-10572674D02*
X13017443Y-10563150D01*
X13017443Y-10563150D02*
X12979348Y-10563150D01*
X12979348Y-10563150D02*
X12960301Y-10572674D01*
X13046015Y-10686960D02*
X13026967Y-10696484D01*
X13026967Y-10696484D02*
X12979348Y-10696484D01*
X12979348Y-10696484D02*
X12960301Y-10686960D01*
X12960301Y-10686960D02*
X12950777Y-10667912D01*
X12950777Y-10667912D02*
X12950777Y-10648865D01*
X12950777Y-10648865D02*
X12960301Y-10629817D01*
X12960301Y-10629817D02*
X12979348Y-10620293D01*
X12979348Y-10620293D02*
X13026967Y-10620293D01*
X13026967Y-10620293D02*
X13046015Y-10610770D01*
X13141253Y-10563150D02*
X13141253Y-10763150D01*
X13141253Y-10572674D02*
X13160301Y-10563150D01*
X13160301Y-10563150D02*
X13198396Y-10563150D01*
X13198396Y-10563150D02*
X13217443Y-10572674D01*
X13217443Y-10572674D02*
X13226967Y-10582198D01*
X13226967Y-10582198D02*
X13236491Y-10601246D01*
X13236491Y-10601246D02*
X13236491Y-10658389D01*
X13236491Y-10658389D02*
X13226967Y-10677436D01*
X13226967Y-10677436D02*
X13217443Y-10686960D01*
X13217443Y-10686960D02*
X13198396Y-10696484D01*
X13198396Y-10696484D02*
X13160301Y-10696484D01*
X13160301Y-10696484D02*
X13141253Y-10686960D01*
X13322205Y-10677436D02*
X13331729Y-10686960D01*
X13331729Y-10686960D02*
X13322205Y-10696484D01*
X13322205Y-10696484D02*
X13312682Y-10686960D01*
X13312682Y-10686960D02*
X13322205Y-10677436D01*
X13322205Y-10677436D02*
X13322205Y-10696484D01*
X13322205Y-10572674D02*
X13331729Y-10582198D01*
X13331729Y-10582198D02*
X13322205Y-10591722D01*
X13322205Y-10591722D02*
X13312682Y-10582198D01*
X13312682Y-10582198D02*
X13322205Y-10572674D01*
X13322205Y-10572674D02*
X13322205Y-10591722D01*
M02*
