%TF.GenerationSoftware,KiCad,Pcbnew,8.0.3*%
%TF.CreationDate,2024-06-23T16:16:59-07:00*%
%TF.ProjectId,frontplate,66726f6e-7470-46c6-9174-652e6b696361,rev?*%
%TF.SameCoordinates,Original*%
%TF.FileFunction,Copper,L1,Top*%
%TF.FilePolarity,Positive*%
%FSLAX46Y46*%
G04 Gerber Fmt 4.6, Leading zero omitted, Abs format (unit mm)*
G04 Created by KiCad (PCBNEW 8.0.3) date 2024-06-23 16:16:59*
%MOMM*%
%LPD*%
G01*
G04 APERTURE LIST*
G04 APERTURE END LIST*
%TA.AperFunction,NonConductor*%
G36*
X172744872Y-93247817D02*
G01*
X173172518Y-93266489D01*
X173183254Y-93267429D01*
X173604965Y-93322948D01*
X173615592Y-93324821D01*
X174030868Y-93416886D01*
X174041280Y-93419675D01*
X174446954Y-93547584D01*
X174457089Y-93551273D01*
X174850057Y-93714046D01*
X174859848Y-93718612D01*
X175237112Y-93915003D01*
X175246480Y-93920411D01*
X175605202Y-94148942D01*
X175614063Y-94155147D01*
X175951494Y-94414067D01*
X175959781Y-94421021D01*
X176273358Y-94708362D01*
X176281007Y-94716011D01*
X176568348Y-95029588D01*
X176575302Y-95037875D01*
X176834222Y-95375306D01*
X176840427Y-95384167D01*
X177068958Y-95742889D01*
X177074366Y-95752257D01*
X177270754Y-96129514D01*
X177275326Y-96139318D01*
X177438090Y-96532265D01*
X177441789Y-96542428D01*
X177547946Y-96879115D01*
X177569688Y-96948070D01*
X177572488Y-96958520D01*
X177664545Y-97373765D01*
X177666423Y-97384418D01*
X177721938Y-97806095D01*
X177722881Y-97816871D01*
X177741433Y-98241791D01*
X177741433Y-98252609D01*
X177722881Y-98677528D01*
X177721938Y-98688304D01*
X177666423Y-99109981D01*
X177664545Y-99120634D01*
X177572488Y-99535879D01*
X177569688Y-99546329D01*
X177441790Y-99951969D01*
X177438090Y-99962134D01*
X177275326Y-100355081D01*
X177270754Y-100364885D01*
X177074366Y-100742142D01*
X177068958Y-100751510D01*
X176840427Y-101110232D01*
X176834222Y-101119093D01*
X176575302Y-101456524D01*
X176568348Y-101464811D01*
X176281007Y-101778388D01*
X176273358Y-101786037D01*
X175959781Y-102073378D01*
X175951494Y-102080332D01*
X175614063Y-102339252D01*
X175605202Y-102345457D01*
X175246480Y-102573988D01*
X175237112Y-102579396D01*
X174859855Y-102775784D01*
X174850051Y-102780356D01*
X174457104Y-102943120D01*
X174446939Y-102946820D01*
X174041299Y-103074718D01*
X174030849Y-103077518D01*
X173615604Y-103169575D01*
X173604951Y-103171453D01*
X173183274Y-103226968D01*
X173172498Y-103227911D01*
X172744873Y-103246582D01*
X172739464Y-103246700D01*
X124744906Y-103246700D01*
X124739497Y-103246582D01*
X124311871Y-103227911D01*
X124301095Y-103226968D01*
X123879418Y-103171453D01*
X123868765Y-103169575D01*
X123598348Y-103109625D01*
X123453517Y-103077517D01*
X123443074Y-103074719D01*
X123037428Y-102946819D01*
X123027265Y-102943120D01*
X122634318Y-102780356D01*
X122624514Y-102775784D01*
X122247257Y-102579396D01*
X122237889Y-102573988D01*
X121879167Y-102345457D01*
X121870306Y-102339252D01*
X121532875Y-102080332D01*
X121524588Y-102073378D01*
X121211011Y-101786037D01*
X121203362Y-101778388D01*
X120916021Y-101464811D01*
X120909067Y-101456524D01*
X120650147Y-101119093D01*
X120643942Y-101110232D01*
X120597947Y-101038035D01*
X120415410Y-100751509D01*
X120410003Y-100742142D01*
X120213615Y-100364885D01*
X120209043Y-100355081D01*
X120165517Y-100250000D01*
X120046273Y-99962119D01*
X120042584Y-99951984D01*
X119914675Y-99546310D01*
X119911886Y-99535898D01*
X119819821Y-99120622D01*
X119817948Y-99109995D01*
X119762429Y-98688284D01*
X119761489Y-98677548D01*
X119742936Y-98252605D01*
X119742936Y-98247200D01*
X120136751Y-98247200D01*
X120156517Y-98498351D01*
X120215326Y-98743310D01*
X120311733Y-98976059D01*
X120443360Y-99190853D01*
X120443361Y-99190856D01*
X120494301Y-99250499D01*
X120606976Y-99382424D01*
X120755266Y-99509075D01*
X120798543Y-99546038D01*
X120798546Y-99546039D01*
X121013340Y-99677666D01*
X121188575Y-99750250D01*
X121246089Y-99774073D01*
X121491052Y-99832883D01*
X121742200Y-99852649D01*
X121993348Y-99832883D01*
X122238311Y-99774073D01*
X122471059Y-99677666D01*
X122685859Y-99546036D01*
X122877424Y-99382424D01*
X123041036Y-99190859D01*
X123172666Y-98976059D01*
X123269073Y-98743311D01*
X123327883Y-98498348D01*
X123347012Y-98255288D01*
X131668500Y-98255288D01*
X131668500Y-99381611D01*
X131668501Y-99381628D01*
X131702728Y-99641611D01*
X131770603Y-99894923D01*
X131870954Y-100137192D01*
X131870959Y-100137203D01*
X131996752Y-100355081D01*
X132002076Y-100364302D01*
X132002079Y-100364306D01*
X132002082Y-100364310D01*
X132161715Y-100572349D01*
X132161721Y-100572356D01*
X132347143Y-100757778D01*
X132347150Y-100757784D01*
X132495288Y-100871454D01*
X132555198Y-100917424D01*
X132555205Y-100917428D01*
X132782296Y-101048540D01*
X132782301Y-101048542D01*
X132782304Y-101048544D01*
X133024581Y-101148898D01*
X133277885Y-101216771D01*
X133537882Y-101251000D01*
X133537889Y-101251000D01*
X140333711Y-101251000D01*
X140333718Y-101251000D01*
X140593715Y-101216771D01*
X140847019Y-101148898D01*
X141089296Y-101048544D01*
X141316402Y-100917424D01*
X141524451Y-100757783D01*
X141709883Y-100572351D01*
X141869524Y-100364302D01*
X141993882Y-100148908D01*
X142000640Y-100137203D01*
X142000642Y-100137199D01*
X142000644Y-100137196D01*
X142100998Y-99894919D01*
X142168871Y-99641615D01*
X142203100Y-99381618D01*
X142203100Y-99250499D01*
X142203100Y-99184607D01*
X142203100Y-98320509D01*
X142203100Y-98255288D01*
X155829800Y-98255288D01*
X155829800Y-99381611D01*
X155829801Y-99381628D01*
X155864028Y-99641611D01*
X155931903Y-99894923D01*
X156032254Y-100137192D01*
X156032259Y-100137203D01*
X156158052Y-100355081D01*
X156163376Y-100364302D01*
X156163379Y-100364306D01*
X156163382Y-100364310D01*
X156323015Y-100572349D01*
X156323021Y-100572356D01*
X156508443Y-100757778D01*
X156508450Y-100757784D01*
X156656588Y-100871454D01*
X156716498Y-100917424D01*
X156716505Y-100917428D01*
X156943596Y-101048540D01*
X156943601Y-101048542D01*
X156943604Y-101048544D01*
X157185881Y-101148898D01*
X157439185Y-101216771D01*
X157699182Y-101251000D01*
X157699189Y-101251000D01*
X164298035Y-101251000D01*
X164298039Y-101251001D01*
X164312541Y-101251000D01*
X164312624Y-101251024D01*
X164363931Y-101251023D01*
X164363931Y-101251024D01*
X164495051Y-101251022D01*
X164755047Y-101216789D01*
X164868930Y-101186272D01*
X165008344Y-101148915D01*
X165008346Y-101148913D01*
X165008350Y-101148913D01*
X165250627Y-101048555D01*
X165477732Y-100917433D01*
X165685780Y-100757789D01*
X165871210Y-100572356D01*
X166030850Y-100364306D01*
X166030856Y-100364294D01*
X166030860Y-100364290D01*
X166161963Y-100137209D01*
X166161969Y-100137199D01*
X166212104Y-100016161D01*
X166262317Y-99894935D01*
X166262317Y-99894932D01*
X166262323Y-99894920D01*
X166330195Y-99641615D01*
X166364424Y-99381619D01*
X166364424Y-99250499D01*
X166364424Y-99184607D01*
X166364424Y-98320509D01*
X166364424Y-98312604D01*
X166364400Y-98312235D01*
X166364400Y-98255289D01*
X166364400Y-98255288D01*
X166364400Y-98255283D01*
X166363336Y-98247200D01*
X174136751Y-98247200D01*
X174156517Y-98498351D01*
X174215326Y-98743310D01*
X174311733Y-98976059D01*
X174443360Y-99190853D01*
X174443361Y-99190856D01*
X174494301Y-99250499D01*
X174606976Y-99382424D01*
X174755266Y-99509075D01*
X174798543Y-99546038D01*
X174798546Y-99546039D01*
X175013340Y-99677666D01*
X175188575Y-99750250D01*
X175246089Y-99774073D01*
X175491052Y-99832883D01*
X175742200Y-99852649D01*
X175993348Y-99832883D01*
X176238311Y-99774073D01*
X176471059Y-99677666D01*
X176685859Y-99546036D01*
X176877424Y-99382424D01*
X177041036Y-99190859D01*
X177172666Y-98976059D01*
X177269073Y-98743311D01*
X177327883Y-98498348D01*
X177347649Y-98247200D01*
X177327883Y-97996052D01*
X177269073Y-97751089D01*
X177215083Y-97620744D01*
X177172666Y-97518340D01*
X177041039Y-97303546D01*
X177041038Y-97303543D01*
X177004075Y-97260266D01*
X176877424Y-97111976D01*
X176750771Y-97003804D01*
X176685856Y-96948361D01*
X176685853Y-96948360D01*
X176471059Y-96816733D01*
X176238310Y-96720326D01*
X175993351Y-96661517D01*
X175742200Y-96641751D01*
X175491048Y-96661517D01*
X175246089Y-96720326D01*
X175013340Y-96816733D01*
X174798546Y-96948360D01*
X174798543Y-96948361D01*
X174606976Y-97111976D01*
X174443361Y-97303543D01*
X174443360Y-97303546D01*
X174311733Y-97518340D01*
X174215326Y-97751089D01*
X174156517Y-97996048D01*
X174136751Y-98247200D01*
X166363336Y-98247200D01*
X166330171Y-97995289D01*
X166262300Y-97741988D01*
X166262295Y-97741976D01*
X166262294Y-97741972D01*
X166161952Y-97499721D01*
X166161944Y-97499705D01*
X166030836Y-97272617D01*
X166030831Y-97272610D01*
X166030830Y-97272608D01*
X165871192Y-97064560D01*
X165759868Y-96953234D01*
X165685769Y-96879133D01*
X165685760Y-96879125D01*
X165477722Y-96719489D01*
X165477710Y-96719482D01*
X165250617Y-96588367D01*
X165250598Y-96588359D01*
X165008347Y-96488011D01*
X165008338Y-96488008D01*
X164755052Y-96420137D01*
X164755043Y-96420135D01*
X164755042Y-96420135D01*
X164755039Y-96420134D01*
X164755036Y-96420134D01*
X164495056Y-96385902D01*
X164495043Y-96385901D01*
X164439816Y-96385901D01*
X164439802Y-96385900D01*
X164429815Y-96385900D01*
X164363931Y-96385900D01*
X164298039Y-96385899D01*
X164298038Y-96385899D01*
X164290445Y-96385899D01*
X164290429Y-96385900D01*
X157896193Y-96385900D01*
X157830301Y-96385900D01*
X157699182Y-96385900D01*
X157699176Y-96385900D01*
X157699171Y-96385901D01*
X157439188Y-96420128D01*
X157185876Y-96488003D01*
X156943607Y-96588354D01*
X156943596Y-96588359D01*
X156716505Y-96719471D01*
X156716489Y-96719482D01*
X156508450Y-96879115D01*
X156508443Y-96879121D01*
X156323021Y-97064543D01*
X156323015Y-97064550D01*
X156163382Y-97272589D01*
X156163371Y-97272605D01*
X156032259Y-97499696D01*
X156032254Y-97499707D01*
X155931903Y-97741976D01*
X155864028Y-97995288D01*
X155829801Y-98255271D01*
X155829800Y-98255288D01*
X142203100Y-98255288D01*
X142203100Y-98255282D01*
X142168871Y-97995285D01*
X142100998Y-97741981D01*
X142000644Y-97499704D01*
X142000642Y-97499701D01*
X142000640Y-97499696D01*
X141869528Y-97272605D01*
X141869524Y-97272598D01*
X141746275Y-97111976D01*
X141709884Y-97064550D01*
X141709878Y-97064543D01*
X141524456Y-96879121D01*
X141524449Y-96879115D01*
X141316410Y-96719482D01*
X141316408Y-96719480D01*
X141316402Y-96719476D01*
X141316397Y-96719473D01*
X141316394Y-96719471D01*
X141089303Y-96588359D01*
X141089292Y-96588354D01*
X140847023Y-96488003D01*
X140593737Y-96420135D01*
X140593715Y-96420129D01*
X140593714Y-96420128D01*
X140593711Y-96420128D01*
X140333728Y-96385901D01*
X140333723Y-96385900D01*
X140333718Y-96385900D01*
X140268491Y-96385900D01*
X133734893Y-96385900D01*
X133669001Y-96385900D01*
X133537882Y-96385900D01*
X133537876Y-96385900D01*
X133537871Y-96385901D01*
X133277888Y-96420128D01*
X133024576Y-96488003D01*
X132782307Y-96588354D01*
X132782296Y-96588359D01*
X132555205Y-96719471D01*
X132555189Y-96719482D01*
X132347150Y-96879115D01*
X132347143Y-96879121D01*
X132161721Y-97064543D01*
X132161715Y-97064550D01*
X132002082Y-97272589D01*
X132002071Y-97272605D01*
X131870959Y-97499696D01*
X131870954Y-97499707D01*
X131770603Y-97741976D01*
X131702728Y-97995288D01*
X131668501Y-98255271D01*
X131668500Y-98255288D01*
X123347012Y-98255288D01*
X123347649Y-98247200D01*
X123327883Y-97996052D01*
X123269073Y-97751089D01*
X123215083Y-97620744D01*
X123172666Y-97518340D01*
X123041039Y-97303546D01*
X123041038Y-97303543D01*
X123004075Y-97260266D01*
X122877424Y-97111976D01*
X122750771Y-97003804D01*
X122685856Y-96948361D01*
X122685853Y-96948360D01*
X122471059Y-96816733D01*
X122238310Y-96720326D01*
X121993351Y-96661517D01*
X121742200Y-96641751D01*
X121491048Y-96661517D01*
X121246089Y-96720326D01*
X121013340Y-96816733D01*
X120798546Y-96948360D01*
X120798543Y-96948361D01*
X120606976Y-97111976D01*
X120443361Y-97303543D01*
X120443360Y-97303546D01*
X120311733Y-97518340D01*
X120215326Y-97751089D01*
X120156517Y-97996048D01*
X120136751Y-98247200D01*
X119742936Y-98247200D01*
X119742936Y-98241791D01*
X119744200Y-98212839D01*
X119761489Y-97816849D01*
X119762429Y-97806117D01*
X119817949Y-97384400D01*
X119819821Y-97373781D01*
X119911887Y-96958495D01*
X119914674Y-96948095D01*
X120042586Y-96542408D01*
X120046270Y-96532287D01*
X120209049Y-96139303D01*
X120213607Y-96129529D01*
X120410009Y-95752245D01*
X120415404Y-95742900D01*
X120643949Y-95384156D01*
X120650139Y-95375317D01*
X120909074Y-95037866D01*
X120916012Y-95029597D01*
X121203372Y-94716000D01*
X121211000Y-94708372D01*
X121524597Y-94421012D01*
X121532866Y-94414074D01*
X121870317Y-94155139D01*
X121879156Y-94148949D01*
X122237900Y-93920404D01*
X122247245Y-93915009D01*
X122624529Y-93718607D01*
X122634303Y-93714049D01*
X123027287Y-93551270D01*
X123037408Y-93547586D01*
X123443095Y-93419674D01*
X123453495Y-93416887D01*
X123868781Y-93324821D01*
X123879400Y-93322949D01*
X124301117Y-93267429D01*
X124311849Y-93266489D01*
X124739497Y-93247817D01*
X124744906Y-93247700D01*
X124808092Y-93247700D01*
X172676278Y-93247700D01*
X172739464Y-93247700D01*
X172744872Y-93247817D01*
G37*
%TD.AperFunction*%
M02*
