%TF.GenerationSoftware,KiCad,Pcbnew,8.0.3*%
%TF.CreationDate,2024-06-23T16:17:00-07:00*%
%TF.ProjectId,frontplate,66726f6e-7470-46c6-9174-652e6b696361,rev?*%
%TF.SameCoordinates,Original*%
%TF.FileFunction,Profile,NP*%
%FSLAX46Y46*%
G04 Gerber Fmt 4.6, Leading zero omitted, Abs format (unit mm)*
G04 Created by KiCad (PCBNEW 8.0.3) date 2024-06-23 16:17:00*
%MOMM*%
%LPD*%
G01*
G04 APERTURE LIST*
%TA.AperFunction,Profile*%
%ADD10C,0.200000*%
%TD*%
G04 APERTURE END LIST*
D10*
X124742200Y-103747200D02*
X172742170Y-103747200D01*
X141702600Y-99250499D02*
G75*
G02*
X140202599Y-100750500I-1500000J-1D01*
G01*
X133669001Y-100750500D02*
G75*
G02*
X132169000Y-99250499I-1J1500000D01*
G01*
X164363923Y-100750500D02*
X157830301Y-100750500D01*
X132169000Y-99250499D02*
X132169000Y-98386401D01*
X141702600Y-98386401D02*
X141702600Y-99250499D01*
X133669001Y-96886400D02*
X140202599Y-96886400D01*
X176842200Y-98247200D02*
G75*
G02*
X174642200Y-98247200I-1100000J0D01*
G01*
X174642200Y-98247200D02*
G75*
G02*
X176842200Y-98247200I1100000J0D01*
G01*
X132169000Y-98386401D02*
G75*
G02*
X133669001Y-96886400I1500000J1D01*
G01*
X165863924Y-99250499D02*
G75*
G02*
X164363923Y-100750524I-1500024J-1D01*
G01*
X140202599Y-100750500D02*
X133669001Y-100750500D01*
X122842200Y-98247200D02*
G75*
G02*
X120642200Y-98247200I-1100000J0D01*
G01*
X120642200Y-98247200D02*
G75*
G02*
X122842200Y-98247200I1100000J0D01*
G01*
X156330300Y-98386401D02*
G75*
G02*
X157830301Y-96886400I1500000J1D01*
G01*
X124742200Y-103747200D02*
G75*
G02*
X124742200Y-92747200I0J5500000D01*
G01*
X156330300Y-99250499D02*
X156330300Y-98386401D01*
X157830301Y-96886400D02*
X164363923Y-96886400D01*
X172742170Y-92747200D02*
X124742200Y-92747200D01*
X165863924Y-98386401D02*
X165863924Y-99250499D01*
X172742170Y-92747200D02*
G75*
G02*
X172742170Y-103747200I0J-5500000D01*
G01*
X140202599Y-96886400D02*
G75*
G02*
X141702600Y-98386401I1J-1500000D01*
G01*
X157830301Y-100750500D02*
G75*
G02*
X156330300Y-99250499I-1J1500000D01*
G01*
X164363923Y-96886400D02*
G75*
G02*
X165863900Y-98386401I-23J-1500000D01*
G01*
M02*
