%TF.GenerationSoftware,KiCad,Pcbnew,8.0.3*%
%TF.CreationDate,2024-06-23T16:17:00-07:00*%
%TF.ProjectId,frontplate,66726f6e-7470-46c6-9174-652e6b696361,rev?*%
%TF.SameCoordinates,Original*%
%TF.FileFunction,Legend,Top*%
%TF.FilePolarity,Positive*%
%FSLAX46Y46*%
G04 Gerber Fmt 4.6, Leading zero omitted, Abs format (unit mm)*
G04 Created by KiCad (PCBNEW 8.0.3) date 2024-06-23 16:17:00*
%MOMM*%
%LPD*%
G01*
G04 APERTURE LIST*
%ADD10C,0.000000*%
G04 APERTURE END LIST*
D10*
%TO.C,kibuzzard-6678AC78*%
G36*
X163773247Y-94226466D02*
G01*
X164166667Y-94821316D01*
X164415308Y-94267382D01*
X164556938Y-94091130D01*
X164789843Y-94125751D01*
X164967668Y-94273677D01*
X164934621Y-94484549D01*
X164163519Y-96212446D01*
X164023462Y-96390272D01*
X163788984Y-96350930D01*
X163609585Y-96198283D01*
X163650501Y-95979542D01*
X163895994Y-95431903D01*
X163294850Y-94525465D01*
X163228755Y-94317740D01*
X163379828Y-94147783D01*
X163606438Y-94076967D01*
X163773247Y-94226466D01*
G37*
G36*
X135483262Y-93408155D02*
G01*
X135569814Y-93478970D01*
X135599714Y-93563948D01*
X135604435Y-93669385D01*
X135604435Y-95416166D01*
X135599714Y-95521602D01*
X135569814Y-95608155D01*
X135483262Y-95680544D01*
X135321173Y-95702575D01*
X135152790Y-95673462D01*
X135063090Y-95586123D01*
X134910443Y-95671102D01*
X134805007Y-95687605D01*
X134729471Y-95699428D01*
X134547449Y-95672500D01*
X134379065Y-95591718D01*
X134224320Y-95457082D01*
X134101049Y-95287474D01*
X134027086Y-95101780D01*
X134003201Y-94906295D01*
X134575250Y-94906295D01*
X134644492Y-95065236D01*
X134805007Y-95132904D01*
X134962375Y-95065236D01*
X135028469Y-94906295D01*
X134962375Y-94745780D01*
X134801860Y-94679685D01*
X134641345Y-94745780D01*
X134575250Y-94906295D01*
X134003201Y-94906295D01*
X134002432Y-94900000D01*
X134027261Y-94703465D01*
X134101749Y-94520919D01*
X134225894Y-94352361D01*
X134381164Y-94217724D01*
X134549022Y-94136942D01*
X134729471Y-94110014D01*
X134901788Y-94135980D01*
X135047353Y-94213877D01*
X135047353Y-93672532D01*
X135045780Y-93590701D01*
X135058369Y-93512017D01*
X135099285Y-93445923D01*
X135181116Y-93401860D01*
X135318026Y-93386123D01*
X135483262Y-93408155D01*
G37*
G36*
X154666381Y-93408155D02*
G01*
X154752933Y-93478970D01*
X154782833Y-93563948D01*
X154787554Y-93669385D01*
X154787554Y-95416166D01*
X154782833Y-95521602D01*
X154752933Y-95608155D01*
X154666381Y-95680544D01*
X154504292Y-95702575D01*
X154335908Y-95673462D01*
X154246209Y-95586123D01*
X154093562Y-95671102D01*
X153988126Y-95687605D01*
X153912589Y-95699428D01*
X153730567Y-95672500D01*
X153562184Y-95591718D01*
X153407439Y-95457082D01*
X153284168Y-95287474D01*
X153210205Y-95101780D01*
X153186320Y-94906295D01*
X153758369Y-94906295D01*
X153827611Y-95065236D01*
X153988126Y-95132904D01*
X154145494Y-95065236D01*
X154211588Y-94906295D01*
X154145494Y-94745780D01*
X153984979Y-94679685D01*
X153824464Y-94745780D01*
X153758369Y-94906295D01*
X153186320Y-94906295D01*
X153185551Y-94900000D01*
X153210380Y-94703465D01*
X153284867Y-94520919D01*
X153409013Y-94352361D01*
X153564282Y-94217724D01*
X153732141Y-94136942D01*
X153912589Y-94110014D01*
X154084907Y-94135980D01*
X154230472Y-94213877D01*
X154230472Y-93672532D01*
X154228898Y-93590701D01*
X154241488Y-93512017D01*
X154282403Y-93445923D01*
X154364235Y-93401860D01*
X154501144Y-93386123D01*
X154666381Y-93408155D01*
G37*
G36*
X147527659Y-94126101D02*
G01*
X147605293Y-94245351D01*
X147775250Y-94714306D01*
X147923176Y-94308298D01*
X148027825Y-94154864D01*
X148190701Y-94103720D01*
X148365379Y-94155651D01*
X148473963Y-94311445D01*
X148618741Y-94714306D01*
X148769814Y-94295708D01*
X148858290Y-94147433D01*
X148981036Y-94088682D01*
X149138054Y-94119456D01*
X149282133Y-94214227D01*
X149340884Y-94330679D01*
X149314306Y-94468813D01*
X148892561Y-95491702D01*
X148883119Y-95515308D01*
X148870529Y-95543634D01*
X148856366Y-95571960D01*
X148839056Y-95603433D01*
X148818598Y-95631760D01*
X148791845Y-95658512D01*
X148760372Y-95680544D01*
X148721030Y-95699428D01*
X148675393Y-95710443D01*
X148621888Y-95715165D01*
X148499142Y-95697854D01*
X148418884Y-95639628D01*
X148376395Y-95571960D01*
X148341774Y-95491702D01*
X148196996Y-95104578D01*
X148052217Y-95491702D01*
X148036481Y-95532618D01*
X148020744Y-95573534D01*
X148006581Y-95608155D01*
X147986123Y-95639628D01*
X147962518Y-95663233D01*
X147931044Y-95686838D01*
X147890129Y-95701001D01*
X147838197Y-95712017D01*
X147775250Y-95715165D01*
X147654077Y-95694707D01*
X147569099Y-95627039D01*
X147526609Y-95560944D01*
X147498283Y-95491702D01*
X147079685Y-94462518D01*
X147068670Y-94256366D01*
X147233906Y-94128898D01*
X147403863Y-94087283D01*
X147527659Y-94126101D01*
G37*
G36*
X144106223Y-94132046D02*
G01*
X144209299Y-94207582D01*
X144356438Y-94134406D01*
X144520887Y-94110014D01*
X144701335Y-94136942D01*
X144869194Y-94217724D01*
X145024464Y-94352361D01*
X145148609Y-94520919D01*
X145223096Y-94703465D01*
X145247926Y-94900000D01*
X145223446Y-95098458D01*
X145150008Y-95278382D01*
X145027611Y-95439771D01*
X144873391Y-95566540D01*
X144704483Y-95642601D01*
X144520887Y-95667954D01*
X144445351Y-95658374D01*
X144359585Y-95647496D01*
X144221888Y-95586123D01*
X144221888Y-96092847D01*
X144220315Y-96196710D01*
X144190415Y-96283262D01*
X144102289Y-96350930D01*
X143938627Y-96372961D01*
X143801717Y-96355651D01*
X143718312Y-96316309D01*
X143675823Y-96251788D01*
X143660086Y-96180973D01*
X143658512Y-96095994D01*
X143658512Y-94906295D01*
X144221888Y-94906295D01*
X144287983Y-95065236D01*
X144445351Y-95132904D01*
X144605866Y-95065236D01*
X144675107Y-94906295D01*
X144609013Y-94745780D01*
X144448498Y-94679685D01*
X144287983Y-94745780D01*
X144221888Y-94906295D01*
X143658512Y-94906295D01*
X143658512Y-94386981D01*
X143663233Y-94283119D01*
X143691559Y-94199714D01*
X143776538Y-94128898D01*
X143935479Y-94106867D01*
X144106223Y-94132046D01*
G37*
G36*
X138196280Y-93600143D02*
G01*
X138282833Y-93670959D01*
X138314306Y-93759084D01*
X138320601Y-93864521D01*
X138320601Y-94116309D01*
X138487411Y-94110014D01*
X138570815Y-94111588D01*
X138644778Y-94128898D01*
X138712446Y-94172961D01*
X138753362Y-94259514D01*
X138770672Y-94399571D01*
X138747067Y-94555365D01*
X138677825Y-94641917D01*
X138591273Y-94674964D01*
X138484263Y-94682833D01*
X138320601Y-94679685D01*
X138320601Y-95044778D01*
X138337911Y-95139199D01*
X138405579Y-95164378D01*
X138522031Y-95170672D01*
X138607010Y-95200572D01*
X138669957Y-95277682D01*
X138688841Y-95422461D01*
X138665236Y-95584549D01*
X138591273Y-95671102D01*
X138504721Y-95701001D01*
X138402432Y-95705722D01*
X138199428Y-95688587D01*
X138035241Y-95637180D01*
X137909871Y-95551502D01*
X137821570Y-95429804D01*
X137768590Y-95270339D01*
X137750930Y-95073104D01*
X137750930Y-94673391D01*
X137672246Y-94673391D01*
X137525894Y-94604149D01*
X137483405Y-94396423D01*
X137533763Y-94193419D01*
X137684835Y-94125751D01*
X137750930Y-94125751D01*
X137750930Y-93851931D01*
X137755651Y-93746495D01*
X137785551Y-93664664D01*
X137872103Y-93598569D01*
X138037339Y-93578112D01*
X138196280Y-93600143D01*
G37*
G36*
X157124464Y-93401860D02*
G01*
X157209442Y-93474249D01*
X157239342Y-93562375D01*
X157245637Y-93669385D01*
X157245637Y-95025894D01*
X157256652Y-95137625D01*
X157330615Y-95154936D01*
X157396710Y-95159657D01*
X157458083Y-95186409D01*
X157511588Y-95268240D01*
X157528898Y-95422461D01*
X157511588Y-95586123D01*
X157458083Y-95672675D01*
X157396710Y-95701001D01*
X157327468Y-95705722D01*
X157151216Y-95700608D01*
X157019027Y-95685265D01*
X156823891Y-95597139D01*
X156707439Y-95402003D01*
X156683834Y-95252897D01*
X156675966Y-95060515D01*
X156675966Y-93666237D01*
X156680687Y-93557654D01*
X156710587Y-93472675D01*
X156798712Y-93401860D01*
X156962375Y-93379828D01*
X157124464Y-93401860D01*
G37*
G36*
X159924034Y-94135193D02*
G01*
X160064092Y-94242203D01*
X160101860Y-94368097D01*
X160049928Y-94522318D01*
X159492847Y-95582976D01*
X159393705Y-95686838D01*
X159241059Y-95721459D01*
X159088412Y-95686838D01*
X158989270Y-95582976D01*
X158432189Y-94522318D01*
X158388126Y-94297282D01*
X158558083Y-94135193D01*
X158792561Y-94084835D01*
X158945207Y-94264235D01*
X159241059Y-94937768D01*
X159536910Y-94264235D01*
X159610873Y-94140308D01*
X159694278Y-94083262D01*
X159924034Y-94135193D01*
G37*
G36*
X146375552Y-94096026D02*
G01*
X146573311Y-94176808D01*
X146747639Y-94311445D01*
X146883151Y-94484899D01*
X146964457Y-94682133D01*
X146991559Y-94903147D01*
X146962709Y-95135002D01*
X146876156Y-95335384D01*
X146731903Y-95504292D01*
X146553028Y-95631935D01*
X146362613Y-95708520D01*
X146160658Y-95734049D01*
X146154363Y-95733244D01*
X145956780Y-95707996D01*
X145764791Y-95629836D01*
X145584692Y-95499571D01*
X145439564Y-95329439D01*
X145352488Y-95131680D01*
X145323462Y-94906295D01*
X145323856Y-94903147D01*
X145899428Y-94903147D01*
X145981259Y-95095136D01*
X146154363Y-95158083D01*
X146330615Y-95095136D01*
X146415594Y-94900000D01*
X146343205Y-94714306D01*
X146151216Y-94645064D01*
X145973391Y-94719027D01*
X145899428Y-94903147D01*
X145323856Y-94903147D01*
X145350739Y-94688253D01*
X145432570Y-94491543D01*
X145568956Y-94316166D01*
X145743109Y-94178906D01*
X145938245Y-94096551D01*
X146154363Y-94069099D01*
X146375552Y-94096026D01*
G37*
G36*
X150481450Y-94094977D02*
G01*
X150661373Y-94163170D01*
X150804578Y-94276824D01*
X150945029Y-94486910D01*
X150991845Y-94708011D01*
X150970207Y-94864199D01*
X150905293Y-94980258D01*
X150804971Y-95052253D01*
X150677110Y-95076252D01*
X150006724Y-95076252D01*
X150101144Y-95195851D01*
X150286838Y-95239914D01*
X150541774Y-95198999D01*
X150686552Y-95158083D01*
X150790415Y-95195851D01*
X150875393Y-95309156D01*
X150916309Y-95453934D01*
X150875393Y-95579238D01*
X150752647Y-95668741D01*
X150548069Y-95722443D01*
X150261660Y-95740343D01*
X150050787Y-95721066D01*
X149865093Y-95663233D01*
X149711266Y-95573927D01*
X149595994Y-95460229D01*
X149511803Y-95331187D01*
X149451216Y-95195851D01*
X149414628Y-95055794D01*
X149402432Y-94912589D01*
X149417650Y-94780401D01*
X150006724Y-94780401D01*
X150359227Y-94780401D01*
X150444206Y-94704864D01*
X150393848Y-94612017D01*
X150258512Y-94578970D01*
X150080687Y-94640343D01*
X150006724Y-94780401D01*
X149417650Y-94780401D01*
X149429185Y-94680210D01*
X149509442Y-94478255D01*
X149643205Y-94306724D01*
X149819282Y-94176458D01*
X150026482Y-94098299D01*
X150264807Y-94072246D01*
X150481450Y-94094977D01*
G37*
G36*
X156008202Y-94094977D02*
G01*
X156188126Y-94163170D01*
X156331330Y-94276824D01*
X156471781Y-94486910D01*
X156518598Y-94708011D01*
X156496960Y-94864199D01*
X156432046Y-94980258D01*
X156331724Y-95052253D01*
X156203863Y-95076252D01*
X155533476Y-95076252D01*
X155627897Y-95195851D01*
X155813591Y-95239914D01*
X156068526Y-95198999D01*
X156213305Y-95158083D01*
X156317167Y-95195851D01*
X156402146Y-95309156D01*
X156443062Y-95453934D01*
X156402146Y-95579238D01*
X156279399Y-95668741D01*
X156074821Y-95722443D01*
X155788412Y-95740343D01*
X155577539Y-95721066D01*
X155391845Y-95663233D01*
X155238019Y-95573927D01*
X155122747Y-95460229D01*
X155038555Y-95331187D01*
X154977969Y-95195851D01*
X154941381Y-95055794D01*
X154929185Y-94912589D01*
X154944403Y-94780401D01*
X155533476Y-94780401D01*
X155885980Y-94780401D01*
X155970959Y-94704864D01*
X155920601Y-94612017D01*
X155785265Y-94578970D01*
X155607439Y-94640343D01*
X155533476Y-94780401D01*
X154944403Y-94780401D01*
X154955937Y-94680210D01*
X155036195Y-94478255D01*
X155169957Y-94306724D01*
X155346034Y-94176458D01*
X155553235Y-94098299D01*
X155791559Y-94072246D01*
X156008202Y-94094977D01*
G37*
G36*
X161276872Y-94094977D02*
G01*
X161456795Y-94163170D01*
X161600000Y-94276824D01*
X161740451Y-94486910D01*
X161787268Y-94708011D01*
X161765629Y-94864199D01*
X161700715Y-94980258D01*
X161600393Y-95052253D01*
X161472532Y-95076252D01*
X160802146Y-95076252D01*
X160896567Y-95195851D01*
X161082260Y-95239914D01*
X161337196Y-95198999D01*
X161481974Y-95158083D01*
X161585837Y-95195851D01*
X161670815Y-95309156D01*
X161711731Y-95453934D01*
X161670815Y-95579238D01*
X161548069Y-95668741D01*
X161343491Y-95722443D01*
X161057082Y-95740343D01*
X160846209Y-95721066D01*
X160660515Y-95663233D01*
X160506688Y-95573927D01*
X160391416Y-95460229D01*
X160307225Y-95331187D01*
X160246638Y-95195851D01*
X160210050Y-95055794D01*
X160197854Y-94912589D01*
X160213072Y-94780401D01*
X160802146Y-94780401D01*
X161154649Y-94780401D01*
X161239628Y-94704864D01*
X161189270Y-94612017D01*
X161053934Y-94578970D01*
X160876109Y-94640343D01*
X160802146Y-94780401D01*
X160213072Y-94780401D01*
X160224607Y-94680210D01*
X160304864Y-94478255D01*
X160438627Y-94306724D01*
X160614704Y-94176458D01*
X160821904Y-94098299D01*
X161060229Y-94072246D01*
X161276872Y-94094977D01*
G37*
G36*
X137236338Y-94128898D02*
G01*
X137322890Y-94201288D01*
X137352790Y-94287840D01*
X137357511Y-94393276D01*
X137357511Y-95416166D01*
X137352790Y-95523176D01*
X137322890Y-95606581D01*
X137234764Y-95677396D01*
X137071102Y-95699428D01*
X136892489Y-95671102D01*
X136803577Y-95586123D01*
X136653290Y-95671102D01*
X136551788Y-95687058D01*
X136473104Y-95699428D01*
X136291082Y-95672500D01*
X136122699Y-95591718D01*
X135967954Y-95457082D01*
X135844683Y-95287474D01*
X135770720Y-95101780D01*
X135746835Y-94906295D01*
X136315737Y-94906295D01*
X136386552Y-95062089D01*
X136551788Y-95129757D01*
X136704435Y-95062089D01*
X136768956Y-94903147D01*
X136704435Y-94742632D01*
X136545494Y-94676538D01*
X136383405Y-94745780D01*
X136315737Y-94906295D01*
X135746835Y-94906295D01*
X135746066Y-94900000D01*
X135770895Y-94703465D01*
X135845382Y-94520919D01*
X135969528Y-94352361D01*
X136124797Y-94217724D01*
X136292656Y-94136942D01*
X136473104Y-94110014D01*
X136658011Y-94141488D01*
X136803577Y-94235908D01*
X136883834Y-94139127D01*
X137074249Y-94106867D01*
X137236338Y-94128898D01*
G37*
G36*
X140339628Y-94128898D02*
G01*
X140426180Y-94201288D01*
X140456080Y-94287840D01*
X140460801Y-94393276D01*
X140460801Y-95416166D01*
X140456080Y-95523176D01*
X140426180Y-95606581D01*
X140338054Y-95677396D01*
X140174392Y-95699428D01*
X139995780Y-95671102D01*
X139906867Y-95586123D01*
X139756581Y-95671102D01*
X139655079Y-95687058D01*
X139576395Y-95699428D01*
X139394373Y-95672500D01*
X139225990Y-95591718D01*
X139071245Y-95457082D01*
X138947973Y-95287474D01*
X138874010Y-95101780D01*
X138850125Y-94906295D01*
X139419027Y-94906295D01*
X139489843Y-95062089D01*
X139655079Y-95129757D01*
X139807725Y-95062089D01*
X139872246Y-94903147D01*
X139807725Y-94742632D01*
X139648784Y-94676538D01*
X139486695Y-94745780D01*
X139419027Y-94906295D01*
X138850125Y-94906295D01*
X138849356Y-94900000D01*
X138874185Y-94703465D01*
X138948673Y-94520919D01*
X139072818Y-94352361D01*
X139228088Y-94217724D01*
X139395947Y-94136942D01*
X139576395Y-94110014D01*
X139761302Y-94141488D01*
X139906867Y-94235908D01*
X139987124Y-94139127D01*
X140177539Y-94106867D01*
X140339628Y-94128898D01*
G37*
G36*
X142217024Y-94171388D02*
G01*
X142295708Y-94235908D01*
X142322461Y-94313019D01*
X142327182Y-94409013D01*
X142327182Y-94613591D01*
X142534907Y-94613591D01*
X142630901Y-94618312D01*
X142708011Y-94645064D01*
X142772532Y-94725322D01*
X142792990Y-94877969D01*
X142774106Y-95025894D01*
X142712732Y-95104578D01*
X142640343Y-95131330D01*
X142550644Y-95136052D01*
X142327182Y-95136052D01*
X142327182Y-95343777D01*
X142322461Y-95439771D01*
X142295708Y-95516881D01*
X142217024Y-95581402D01*
X142065951Y-95601860D01*
X141918026Y-95581402D01*
X141839342Y-95515308D01*
X141812589Y-95436624D01*
X141807868Y-95340629D01*
X141807868Y-95136052D01*
X141581259Y-95136052D01*
X141491559Y-95131330D01*
X141419170Y-95104578D01*
X141357797Y-95025894D01*
X141338913Y-94874821D01*
X141359371Y-94723748D01*
X141425465Y-94645064D01*
X141505722Y-94618312D01*
X141603290Y-94613591D01*
X141807868Y-94613591D01*
X141807868Y-94405866D01*
X141812589Y-94309871D01*
X141839342Y-94232761D01*
X141918026Y-94169814D01*
X142069099Y-94150930D01*
X142217024Y-94171388D01*
G37*
G36*
X152112303Y-94098999D02*
G01*
X152225608Y-94127325D01*
X152327897Y-94198140D01*
X152367239Y-94317740D01*
X152349928Y-94465272D01*
X152297997Y-94586838D01*
X152121745Y-94695422D01*
X152000572Y-94671817D01*
X151923462Y-94648212D01*
X151767668Y-94693848D01*
X151706295Y-94808727D01*
X151706295Y-95422461D01*
X151701574Y-95529471D01*
X151671674Y-95612876D01*
X151583548Y-95683691D01*
X151416738Y-95705722D01*
X151254649Y-95683691D01*
X151168097Y-95611302D01*
X151138197Y-95524750D01*
X151133476Y-95416166D01*
X151133476Y-94390129D01*
X151138197Y-94283119D01*
X151168097Y-94199714D01*
X151254649Y-94128898D01*
X151419886Y-94106867D01*
X151602432Y-94139127D01*
X151690558Y-94235908D01*
X151849499Y-94127325D01*
X152017883Y-94091130D01*
X152112303Y-94098999D01*
G37*
G36*
X162907725Y-94098999D02*
G01*
X163021030Y-94127325D01*
X163123319Y-94198140D01*
X163162661Y-94317740D01*
X163145351Y-94465272D01*
X163093419Y-94586838D01*
X162917167Y-94695422D01*
X162795994Y-94671817D01*
X162718884Y-94648212D01*
X162563090Y-94693848D01*
X162501717Y-94808727D01*
X162501717Y-95422461D01*
X162496996Y-95529471D01*
X162467096Y-95612876D01*
X162378970Y-95683691D01*
X162212160Y-95705722D01*
X162050072Y-95683691D01*
X161963519Y-95611302D01*
X161933619Y-95524750D01*
X161928898Y-95416166D01*
X161928898Y-94390129D01*
X161933619Y-94283119D01*
X161963519Y-94199714D01*
X162050072Y-94128898D01*
X162215308Y-94106867D01*
X162397854Y-94139127D01*
X162485980Y-94235908D01*
X162644921Y-94127325D01*
X162813305Y-94091130D01*
X162907725Y-94098999D01*
G37*
G36*
X158103290Y-94132046D02*
G01*
X158189843Y-94204435D01*
X158219742Y-94290987D01*
X158224464Y-94399571D01*
X158224464Y-95422461D01*
X158219742Y-95529471D01*
X158189843Y-95612876D01*
X158103290Y-95683691D01*
X157938054Y-95705722D01*
X157775966Y-95683691D01*
X157689413Y-95612876D01*
X157659514Y-95527897D01*
X157654793Y-95419313D01*
X157654793Y-94393276D01*
X157659514Y-94287840D01*
X157689413Y-94202861D01*
X157777539Y-94132046D01*
X157941202Y-94110014D01*
X158103290Y-94132046D01*
G37*
G36*
X158103290Y-93408155D02*
G01*
X158189843Y-93480544D01*
X158219742Y-93567096D01*
X158224464Y-93672532D01*
X158219742Y-93779542D01*
X158189843Y-93862947D01*
X158103290Y-93933763D01*
X157938054Y-93955794D01*
X157775966Y-93933763D01*
X157689413Y-93861373D01*
X157659514Y-93774821D01*
X157654793Y-93669385D01*
X157659514Y-93563948D01*
X157689413Y-93478970D01*
X157777539Y-93408155D01*
X157941202Y-93386123D01*
X158103290Y-93408155D01*
G37*
%TD*%
M02*
